#Comment line ignore any data following # character 
#Hierarchical Translation and Rotation (.htr) file 
[Header]	
#Header keywords are followed by a single value 
FileType HTR		#Single word string
DataType HTRS		#Translation followed by rotation and scale data
FileVersion 1		#integer
NumSegments 84		#integer
NumFrames 2		#integer
DataFrameRate 30		#integer, data frame rate in this file
EulerRotationOrder ZYX
CalibrationUnits mm
RotationUnits Degrees
GlobalAxisofGravity Y
BoneLengthAxis Y
ScaleFactor 1.00
[SegmentNames&Hierarchy]
#CHILD	PARENT
MASTER GLOBAL
root MASTER
chest root
L_mid_tent01 root
R_mid_tent01 root
spine01 root
Bip01_Neck chest
L_humerus chest
R_humerus chest
weapon_bone chest
Bip01_Head Bip01_Neck
eye_left_bone Bip01_Head
eye_right_bone Bip01_Head
L_forearm L_humerus
L_front_hand L_forearm
L_weapon_bone L_forearm
L_front_hand01_01 L_front_hand
L_front_hand02_01 L_front_hand
L_front_hand03_01 L_front_hand
L_front_hand01_02 L_front_hand01_01
L_front_hand02_02 L_front_hand02_01
L_front_hand03_02 L_front_hand03_01
R_forearm R_humerus
R_front_hand R_forearm
R_weapon_bone R_forearm
R_front_hand01_01 R_front_hand
R_front_hand02_01 R_front_hand
R_front_hand03_01 R_front_hand
R_front_hand01_02 R_front_hand01_01
R_front_hand02_02 R_front_hand02_01
R_front_hand03_02 R_front_hand03_01
null_rope01_connect L_mid_tent01
Rope1_Seg01 null_rope01_connect
Rope1_Seg02 Rope1_Seg01
Rope1_Seg03 Rope1_Seg02
Rope1_Seg04 Rope1_Seg03
Rope1_Seg05 Rope1_Seg04
Rope1_Seg06 Rope1_Seg05
Rope1_Seg07 Rope1_Seg06
Rope1_Seg09 Rope1_Seg07
L_mid_hand01 Rope1_Seg09
L_mid_hand02 Rope1_Seg09
L_mid_hand03 Rope1_Seg09
null_rope02_connect R_mid_tent01
Rope2_Seg01 null_rope02_connect
Rope2_Seg02 Rope2_Seg01
Rope2_Seg03 Rope2_Seg02
Rope2_Seg04 Rope2_Seg03
Rope2_Seg05 Rope2_Seg04
Rope2_Seg06 Rope2_Seg05
Rope2_Seg07 Rope2_Seg06
Rope2_Seg09 Rope2_Seg07
R_mid_hand01 Rope2_Seg09
R_mid_hand02 Rope2_Seg09
R_mid_hand03 Rope2_Seg09
spine02 spine01
spine03 spine02
pelvis spine03
null_rope03_connect pelvis
null_rope04_connect pelvis
Rope3_Seg01 null_rope03_connect
Rope3_Seg02 Rope3_Seg01
Rope3_Seg03 Rope3_Seg02
Rope3_Seg04 Rope3_Seg03
Rope3_Seg05 Rope3_Seg04
Rope3_Seg06 Rope3_Seg05
Rope3_Seg07 Rope3_Seg06
Rope3_Seg08 Rope3_Seg07
Rope3_Seg09 Rope3_Seg08
R_rear_hand01 Rope3_Seg09
R_rear_hand02 Rope3_Seg09
R_rear_hand03 Rope3_Seg09
Rope4_Seg01 null_rope04_connect
Rope4_Seg02 Rope4_Seg01
Rope4_Seg03 Rope4_Seg02
Rope4_Seg04 Rope4_Seg03
Rope4_Seg05 Rope4_Seg04
Rope4_Seg06 Rope4_Seg05
Rope4_Seg07 Rope4_Seg06
Rope4_Seg08 Rope4_Seg07
Rope4_Seg09 Rope4_Seg08
L_rear_hand01 Rope4_Seg09
L_rear_hand02 Rope4_Seg09
L_rear_hand03 Rope4_Seg09
[BasePosition]
#SegmentName Tx, Ty, Tz, Rx, Ry, Rz, BoneLength
MASTER 0.000000 0.000000 0.000000 -90.000000 0.000000 0.000000 10.000000 
root 0.000000 0.000000 0.000000 0.000000 0.000000 0.000000 10.000000 
chest 0.000000 0.000000 0.000000 0.000000 0.000000 0.000000 10.000000 
L_mid_tent01 0.000000 0.000000 0.000000 0.000000 0.000000 0.000000 10.000000 
R_mid_tent01 0.000000 0.000000 0.000000 0.000000 0.000000 0.000000 10.000000 
spine01 0.000000 0.000000 0.000000 0.000000 0.000000 0.000000 10.000000 
Bip01_Neck 0.000000 0.000000 0.000000 0.000000 0.000000 0.000000 10.000000 
L_humerus 0.000000 0.000000 0.000000 0.000000 0.000000 0.000000 10.000000 
R_humerus 0.000000 0.000000 0.000000 0.000000 0.000000 0.000000 10.000000 
weapon_bone 0.000000 0.000000 0.000000 0.000000 0.000000 0.000000 10.000000 
Bip01_Head 0.000000 0.000000 0.000000 0.000000 0.000000 0.000000 10.000000 
eye_left_bone 0.000000 0.000000 0.000000 0.000000 0.000000 0.000000 10.000000 
eye_right_bone 0.000000 0.000000 0.000000 0.000000 0.000000 0.000000 10.000000 
L_forearm 0.000000 0.000000 0.000000 0.000000 0.000000 0.000000 10.000000 
L_front_hand 0.000000 0.000000 0.000000 0.000000 0.000000 0.000000 10.000000 
L_weapon_bone 0.000000 0.000000 0.000000 0.000000 0.000000 0.000000 10.000000 
L_front_hand01_01 0.000000 0.000000 0.000000 0.000000 0.000000 0.000000 10.000000 
L_front_hand02_01 0.000000 0.000000 0.000000 0.000000 0.000000 0.000000 10.000000 
L_front_hand03_01 0.000000 0.000000 0.000000 0.000000 0.000000 0.000000 10.000000 
L_front_hand01_02 0.000000 0.000000 0.000000 0.000000 0.000000 0.000000 10.000000 
L_front_hand02_02 0.000000 0.000000 0.000000 0.000000 0.000000 0.000000 10.000000 
L_front_hand03_02 0.000000 0.000000 0.000000 0.000000 0.000000 0.000000 10.000000 
R_forearm 0.000000 0.000000 0.000000 0.000000 0.000000 0.000000 10.000000 
R_front_hand 0.000000 0.000000 0.000000 0.000000 0.000000 0.000000 10.000000 
R_weapon_bone 0.000000 0.000000 0.000000 0.000000 0.000000 0.000000 10.000000 
R_front_hand01_01 0.000000 0.000000 0.000000 0.000000 0.000000 0.000000 10.000000 
R_front_hand02_01 0.000000 0.000000 0.000000 0.000000 0.000000 0.000000 10.000000 
R_front_hand03_01 0.000000 0.000000 0.000000 0.000000 0.000000 0.000000 10.000000 
R_front_hand01_02 0.000000 0.000000 0.000000 0.000000 0.000000 0.000000 10.000000 
R_front_hand02_02 0.000000 0.000000 0.000000 0.000000 0.000000 0.000000 10.000000 
R_front_hand03_02 0.000000 0.000000 0.000000 0.000000 0.000000 0.000000 10.000000 
null_rope01_connect 0.000000 0.000000 0.000000 0.000000 0.000000 0.000000 10.000000 
Rope1_Seg01 0.000000 0.000000 0.000000 0.000000 0.000000 0.000000 10.000000 
Rope1_Seg02 0.000000 0.000000 0.000000 0.000000 0.000000 0.000000 10.000000 
Rope1_Seg03 0.000000 0.000000 0.000000 0.000000 0.000000 0.000000 10.000000 
Rope1_Seg04 0.000000 0.000000 0.000000 0.000000 0.000000 0.000000 10.000000 
Rope1_Seg05 0.000000 0.000000 0.000000 0.000000 0.000000 0.000000 10.000000 
Rope1_Seg06 0.000000 0.000000 0.000000 0.000000 0.000000 0.000000 10.000000 
Rope1_Seg07 0.000000 0.000000 0.000000 0.000000 0.000000 0.000000 10.000000 
Rope1_Seg09 0.000000 0.000000 0.000000 0.000000 0.000000 0.000000 10.000000 
L_mid_hand01 0.000000 0.000000 0.000000 0.000000 0.000000 0.000000 10.000000 
L_mid_hand02 0.000000 0.000000 0.000000 0.000000 0.000000 0.000000 10.000000 
L_mid_hand03 0.000000 0.000000 0.000000 0.000000 0.000000 0.000000 10.000000 
null_rope02_connect 0.000000 0.000000 0.000000 0.000000 0.000000 0.000000 10.000000 
Rope2_Seg01 0.000000 0.000000 0.000000 0.000000 0.000000 0.000000 10.000000 
Rope2_Seg02 0.000000 0.000000 0.000000 0.000000 0.000000 0.000000 10.000000 
Rope2_Seg03 0.000000 0.000000 0.000000 0.000000 0.000000 0.000000 10.000000 
Rope2_Seg04 0.000000 0.000000 0.000000 0.000000 0.000000 0.000000 10.000000 
Rope2_Seg05 0.000000 0.000000 0.000000 0.000000 0.000000 0.000000 10.000000 
Rope2_Seg06 0.000000 0.000000 0.000000 0.000000 0.000000 0.000000 10.000000 
Rope2_Seg07 0.000000 0.000000 0.000000 0.000000 0.000000 0.000000 10.000000 
Rope2_Seg09 0.000000 0.000000 0.000000 0.000000 0.000000 0.000000 10.000000 
R_mid_hand01 0.000000 0.000000 0.000000 0.000000 0.000000 0.000000 10.000000 
R_mid_hand02 0.000000 0.000000 0.000000 0.000000 0.000000 0.000000 10.000000 
R_mid_hand03 0.000000 0.000000 0.000000 0.000000 0.000000 0.000000 10.000000 
spine02 0.000000 0.000000 0.000000 0.000000 0.000000 0.000000 10.000000 
spine03 0.000000 0.000000 0.000000 0.000000 0.000000 0.000000 10.000000 
pelvis 0.000000 0.000000 0.000000 0.000000 0.000000 0.000000 10.000000 
null_rope03_connect 0.000000 0.000000 0.000000 0.000000 0.000000 0.000000 10.000000 
null_rope04_connect 0.000000 0.000000 0.000000 0.000000 0.000000 0.000000 10.000000 
Rope3_Seg01 0.000000 0.000000 0.000000 0.000000 0.000000 0.000000 10.000000 
Rope3_Seg02 0.000000 0.000000 0.000000 0.000000 0.000000 0.000000 10.000000 
Rope3_Seg03 0.000000 0.000000 0.000000 0.000000 0.000000 0.000000 10.000000 
Rope3_Seg04 0.000000 0.000000 0.000000 0.000000 0.000000 0.000000 10.000000 
Rope3_Seg05 0.000000 0.000000 0.000000 0.000000 0.000000 0.000000 10.000000 
Rope3_Seg06 0.000000 0.000000 0.000000 0.000000 0.000000 0.000000 10.000000 
Rope3_Seg07 0.000000 0.000000 0.000000 0.000000 0.000000 0.000000 10.000000 
Rope3_Seg08 0.000000 0.000000 0.000000 0.000000 0.000000 0.000000 10.000000 
Rope3_Seg09 0.000000 0.000000 0.000000 0.000000 0.000000 0.000000 10.000000 
R_rear_hand01 0.000000 0.000000 0.000000 0.000000 0.000000 0.000000 10.000000 
R_rear_hand02 0.000000 0.000000 0.000000 0.000000 0.000000 0.000000 10.000000 
R_rear_hand03 0.000000 0.000000 0.000000 0.000000 0.000000 0.000000 10.000000 
Rope4_Seg01 0.000000 0.000000 0.000000 0.000000 0.000000 0.000000 10.000000 
Rope4_Seg02 0.000000 0.000000 0.000000 0.000000 0.000000 0.000000 10.000000 
Rope4_Seg03 0.000000 0.000000 0.000000 0.000000 0.000000 0.000000 10.000000 
Rope4_Seg04 0.000000 0.000000 0.000000 0.000000 0.000000 0.000000 10.000000 
Rope4_Seg05 0.000000 0.000000 0.000000 0.000000 0.000000 0.000000 10.000000 
Rope4_Seg06 0.000000 0.000000 0.000000 0.000000 0.000000 0.000000 10.000000 
Rope4_Seg07 0.000000 0.000000 0.000000 0.000000 0.000000 0.000000 10.000000 
Rope4_Seg08 0.000000 0.000000 0.000000 0.000000 0.000000 0.000000 10.000000 
Rope4_Seg09 0.000000 0.000000 0.000000 0.000000 0.000000 0.000000 10.000000 
L_rear_hand01 0.000000 0.000000 0.000000 0.000000 0.000000 0.000000 10.000000 
L_rear_hand02 0.000000 0.000000 0.000000 0.000000 0.000000 0.000000 10.000000 
L_rear_hand03 0.000000 0.000000 0.000000 0.000000 0.000000 0.000000 10.000000 
#Beginning of Data. Separated by tabs
#Fr	Tx	Ty	Tz	Rx	Ry	Rz	SF
[MASTER]
13 0.000000 0.000000 0.000000 0.001660 0.001660 0.001660 0.000000
14 0.000000 0.000000 0.000000 0.001660 0.001660 0.001660 0.000000
[root]
13 -36.991051 -53.304829 1502.512207 -122.071053 -25.167448 -92.308571 1503.912354
14 -36.482311 -53.863636 1502.449829 -123.624680 -26.180948 -91.412750 1503.857666
[chest]
13 -84.512650 -34.090519 0.000000 -9.866851 10.865242 155.496216 91.129311
14 -84.512650 -34.090519 0.000000 -10.691231 11.666018 158.722290 91.129311
[L_mid_tent01]
13 27.299150 22.179106 -249.918716 2.284028 1.369910 78.959244 252.381699
14 27.299154 22.179106 -249.918716 2.346413 3.197627 79.066933 252.381699
[R_mid_tent01]
13 23.228794 24.509907 226.238495 166.084595 -4.453074 73.320305 228.744751
14 23.228794 24.509907 226.238495 166.130096 -6.934566 73.905312 228.744751
[spine01]
13 -0.361383 -0.195265 0.000000 0.002062 0.001122 32.879829 0.410763
14 -0.361383 -0.195265 0.000000 0.002062 0.001122 32.879822 0.410763
[Bip01_Neck]
13 165.484543 71.581718 0.000119 176.643677 -1.657967 43.431911 180.302734
14 165.484543 71.581718 0.000119 176.643677 -1.657967 43.431911 180.302734
[L_humerus]
13 -13.983130 -135.272980 -120.471481 162.528244 21.266983 -66.965187 181.680161
14 -13.983130 -135.272980 -120.471481 163.018921 22.878706 -68.932442 181.680161
[R_humerus]
13 -13.983309 -135.273102 125.287651 -175.955902 -8.359763 -88.221077 184.909012
14 -13.983309 -135.273102 125.287651 -174.771912 -7.695277 -91.303268 184.909012
[weapon_bone]
13 235.964890 -300.705902 0.000000 0.000000 -89.951546 -128.212341 382.234833
14 235.964890 -300.705902 0.000000 0.000000 -89.951546 -128.212341 382.234833
[Bip01_Head]
13 213.444229 185.715546 11.776937 17.566256 3.012083 -43.894882 283.173798
14 213.444244 185.715561 11.776938 18.109375 3.033490 -43.895573 283.173798
[eye_left_bone]
13 -24.626970 125.451866 -64.772606 0.000000 -90.000000 -99.840431 143.318359
14 -24.626970 125.451866 -64.772606 0.000000 -90.000000 -99.840431 143.318359
[eye_right_bone]
13 -24.626970 125.451866 64.327362 0.000000 -89.972023 80.156380 143.117676
14 -24.626970 125.451866 64.327362 0.000000 -89.965736 80.156380 143.117676
[L_forearm]
13 322.776093 0.000000 -0.000119 0.000396 -0.002314 -109.419968 322.776093
14 322.776093 0.000000 -0.000119 0.000396 -0.002314 -109.419975 322.776093
[L_front_hand]
13 241.149185 -0.042021 -3.300071 -178.667953 -1.835447 -27.422342 241.171753
14 241.149185 -0.042021 -3.300071 -178.667953 -1.835447 -27.422350 241.171753
[L_weapon_bone]
13 156.183838 0.000000 0.000000 0.000014 0.000007 0.000001 156.183838
14 156.183838 0.000000 0.000000 0.000014 0.000007 0.000001 156.183838
[L_front_hand01_01]
13 86.095154 20.947098 -0.655860 -0.273595 -0.533315 65.049789 88.609184
14 86.095154 20.947098 -0.655860 -0.274524 -0.532838 65.249336 88.609184
[L_front_hand02_01]
13 86.935165 -11.437475 24.513514 140.847198 -54.305569 -45.275558 91.046425
14 86.935165 -11.437475 24.513514 141.056351 -54.426506 -45.533741 91.046425
[L_front_hand03_01]
13 86.637497 -14.123976 -20.424902 -141.248154 52.538330 -47.352356 90.126129
14 86.637497 -14.123976 -20.424902 -141.450653 52.656376 -47.603416 90.126129
[L_front_hand01_02]
13 71.020905 -0.000179 0.000030 0.000315 -0.002326 -105.408310 71.020905
14 71.020905 -0.000179 0.000030 0.000315 -0.002326 -105.409866 71.020905
[L_front_hand02_02]
13 71.020927 -0.000119 0.000060 0.000315 -0.002326 -105.408310 71.020927
14 71.020927 -0.000119 0.000060 0.000315 -0.002326 -105.409866 71.020927
[L_front_hand03_02]
13 71.020905 -0.000060 0.000060 0.000315 -0.002326 -105.408310 71.020905
14 71.020905 -0.000060 0.000060 0.000315 -0.002326 -105.409866 71.020905
[R_forearm]
13 322.776428 -0.000060 0.000030 0.202103 0.065158 -108.062820 322.776428
14 322.776428 -0.000060 0.000030 0.202103 0.065158 -108.062805 322.776428
[R_front_hand]
13 238.847015 -0.006795 2.210259 -2.635298 -10.645461 -26.312506 238.857239
14 238.847015 -0.006795 2.210259 -2.635298 -10.645461 -26.312506 238.857239
[R_weapon_bone]
13 155.664093 0.002503 -0.000030 0.003487 0.001180 -90.988930 155.664078
14 155.664093 0.002503 -0.000030 0.003487 0.001180 -90.988930 155.664078
[R_front_hand01_01]
13 87.624611 14.231146 22.918642 -138.750473 -52.998306 42.777832 91.683487
14 87.624611 14.231146 22.918642 -138.456909 -52.798630 42.405624 91.683487
[R_front_hand02_01]
13 89.356956 14.367283 -19.491137 139.579330 51.434883 45.463142 92.579636
14 89.356956 14.367283 -19.491137 139.300415 51.240414 45.105934 92.579636
[R_front_hand03_01]
13 87.286232 -22.307278 -0.143439 0.065240 -0.451614 -63.269981 90.091743
14 87.286232 -22.307278 -0.143439 0.064051 -0.451784 -62.968163 90.091743
[R_front_hand01_02]
13 71.020905 0.000060 0.000119 0.002323 -0.000334 106.381706 71.020905
14 71.020905 0.000060 0.000119 0.002323 -0.000334 106.381714 71.020905
[R_front_hand02_02]
13 71.020844 -0.000030 -0.000119 0.002323 -0.000334 106.381706 71.020836
14 71.020844 -0.000030 -0.000119 0.002323 -0.000334 106.381714 71.020836
[R_front_hand03_02]
13 71.020905 0.000000 0.000030 0.002323 -0.000334 106.381706 71.020905
14 71.020905 0.000000 0.000030 0.002323 -0.000334 106.381714 71.020905
[null_rope01_connect]
13 328.732483 0.000000 -0.000238 -147.272247 -55.737656 -176.362335 328.732483
14 328.732483 0.000000 -0.000238 -147.309540 -52.832752 -175.023666 328.732483
[Rope1_Seg01]
13 -0.000030 0.000021 0.000085 -124.099045 40.161259 -117.787231 0.000092
14 -0.000029 0.000020 0.000079 -128.292389 38.529293 -119.147804 0.000087
[Rope1_Seg02]
13 139.999863 -0.000179 0.000000 3.360284 0.822221 -2.161345 139.999863
14 139.999863 -0.000179 0.000000 3.930359 0.562610 -1.923945 139.999863
[Rope1_Seg03]
13 139.999924 0.000060 -0.000060 6.460346 0.998196 -2.993869 139.999924
14 139.999924 0.000060 -0.000060 7.224124 0.649382 -2.643526 139.999924
[Rope1_Seg04]
13 139.999924 -0.000060 -0.000119 10.718233 3.747041 -5.459166 139.999924
14 139.999924 -0.000060 -0.000119 10.228746 2.518399 -4.244002 139.999924
[Rope1_Seg05]
13 139.999832 0.000119 -0.000060 53.540482 -5.858835 -4.070279 139.999832
14 139.999832 0.000119 -0.000060 54.557701 -5.568372 -4.898602 139.999832
[Rope1_Seg06]
13 139.999954 0.000119 -0.000060 -2.084608 -2.672924 3.707381 139.999954
14 139.999954 0.000119 -0.000060 3.376512 -3.263350 2.459777 139.999954
[Rope1_Seg07]
13 139.999985 0.000060 0.000000 1.562985 -1.406154 0.947061 139.999985
14 139.999985 0.000060 0.000000 2.454259 -1.573580 0.789205 139.999985
[Rope1_Seg09]
13 121.602913 0.000119 -0.000089 -89.793175 -1.359789 0.847147 121.602913
14 121.602913 0.000119 -0.000089 -89.793175 -1.359789 0.847147 121.602913
[L_mid_hand01]
13 103.859421 1.038730 8.195221 117.050385 -56.962147 -23.706017 104.187431
14 103.859421 1.038730 8.195221 120.930138 -61.160690 -28.229246 104.187431
[L_mid_hand02]
13 105.572853 -4.139662 -10.864139 -158.073990 39.777447 -57.232609 106.211075
14 105.572853 -4.139662 -10.864139 -161.940094 41.417198 -63.166008 106.211075
[L_mid_hand03]
13 104.641464 17.579376 -3.913581 -9.852259 16.055754 61.772259 106.179977
14 104.641464 17.579376 -3.913581 -8.453334 16.815422 66.707115 106.179977
[null_rope02_connect]
13 328.732849 0.000179 -0.000119 2.255403 55.233917 144.797958 328.732849
14 328.732849 0.000179 -0.000119 0.320024 55.910995 142.233963 328.732849
[Rope2_Seg01]
13 -0.000025 0.000103 0.000000 106.631065 44.766724 -123.550964 0.000106
14 -0.000034 0.000102 0.000000 107.631844 48.661789 -124.077133 0.000107
[Rope2_Seg02]
13 139.999741 -0.000060 -0.000119 -1.844649 -5.780838 8.521871 139.999756
14 139.999741 -0.000060 -0.000119 -1.789793 -5.238636 8.116439 139.999756
[Rope2_Seg03]
13 140.000107 0.000030 0.000000 -1.540363 -9.937701 12.686848 140.000107
14 140.000107 0.000030 0.000000 -1.889902 -11.366245 14.352770 140.000107
[Rope2_Seg04]
13 139.999802 0.000000 -0.000060 -0.641611 -20.741276 20.381392 139.999802
14 139.999802 0.000000 -0.000060 0.339474 -19.799231 22.908886 139.999802
[Rope2_Seg05]
13 139.999985 -0.000060 0.000119 3.129050 13.243203 1.415946 139.999985
14 139.999985 -0.000060 0.000119 1.336052 25.363914 -4.190515 139.999985
[Rope2_Seg06]
13 139.999893 -0.000030 -0.000119 -3.013469 29.376114 -11.816691 139.999893
14 139.999893 -0.000030 -0.000119 -1.258953 19.645376 -6.172144 139.999893
[Rope2_Seg07]
13 139.999893 0.000060 -0.000060 -1.037125 11.161319 -2.644233 139.999893
14 139.999893 0.000060 -0.000060 -0.774323 7.957039 -1.390805 139.999893
[Rope2_Seg09]
13 121.338966 0.000089 -0.000060 33.793236 -1.359788 -0.847141 121.338966
14 121.338966 0.000089 -0.000060 33.793236 -1.359788 -0.847141 121.338966
[R_mid_hand01]
13 104.680779 11.144459 -10.335981 -36.393559 32.857430 39.082325 105.778534
14 104.680779 11.144459 -10.335981 -34.133900 35.224609 43.118965 105.778534
[R_mid_hand02]
13 104.070427 2.443552 8.231699 69.855133 -43.919106 14.811798 104.424065
14 104.070427 2.443552 8.231699 68.355568 -47.750378 16.904360 104.424065
[R_mid_hand03]
13 106.028137 -11.221827 -5.996406 -170.241379 12.502221 -48.811024 106.788818
14 106.028137 -11.221827 -5.996406 -171.160019 13.166381 -52.959469 106.788818
[spine02]
13 129.756927 0.001550 0.000119 0.360061 -4.044796 -12.915055 129.756927
14 129.756927 0.001550 0.000119 0.360061 -4.044797 -12.915058 129.756927
[spine03]
13 78.614067 0.081635 -4.899010 1.896495 3.831288 16.473045 78.766602
14 78.614067 0.081635 -4.899011 1.896495 3.831288 16.473045 78.766602
[pelvis]
13 169.435242 0.051022 0.000000 -0.060465 -0.180225 14.087931 169.435257
14 169.435242 0.051022 0.000000 -0.060465 -0.180225 14.087930 169.435257
[null_rope03_connect]
13 -1.257226 -2.466202 137.391083 -150.778061 -57.925156 -145.041321 137.418976
14 -1.257226 -2.466202 137.391083 -151.201797 -56.779888 -143.390549 137.418976
[null_rope04_connect]
13 -1.259640 -2.480268 -137.844437 -150.778061 -57.925156 -145.041321 137.872513
14 -1.259640 -2.480268 -137.844437 -151.201797 -56.779888 -143.390549 137.872513
[Rope3_Seg01]
13 0.000010 0.000021 -0.000085 -144.995956 26.970358 -108.388023 0.000088
14 0.000010 0.000020 -0.000079 -139.245178 19.957617 -104.591072 0.000082
[Rope3_Seg02]
13 139.999924 -0.000119 0.000060 3.096349 10.299113 12.774012 139.999924
14 139.999924 -0.000119 0.000060 3.641044 13.315470 18.818598 139.999924
[Rope3_Seg03]
13 139.999924 -0.000119 0.000119 5.086596 9.422838 10.677451 139.999924
14 139.999924 -0.000119 0.000119 4.756712 9.346577 11.453256 139.999924
[Rope3_Seg04]
13 139.999924 0.000119 0.000000 19.864553 11.330144 10.621749 139.999924
14 139.999924 0.000119 0.000000 10.535680 7.457599 7.343384 139.999924
[Rope3_Seg05]
13 139.999924 -0.000238 0.000060 3.161479 1.180497 0.850636 139.999924
14 139.999924 -0.000238 0.000060 -2.180635 -0.220182 0.559865 139.999924
[Rope3_Seg06]
13 139.999893 -0.000119 -0.000060 -20.178144 -10.411502 -3.100149 139.999893
14 139.999893 -0.000119 -0.000060 -10.490878 -6.275314 -3.023330 139.999893
[Rope3_Seg07]
13 139.999771 0.000060 -0.000119 -6.714139 -17.344593 -13.838107 139.999771
14 139.999771 0.000060 -0.000119 -6.378112 -12.540232 -10.051113 139.999771
[Rope3_Seg08]
13 139.999985 -0.000060 0.000000 -0.623517 -8.360519 -8.644211 139.999985
14 139.999985 -0.000060 0.000000 -1.229733 -7.043771 -6.923913 139.999985
[Rope3_Seg09]
13 90.185997 -0.000179 -0.000060 89.793228 -1.359877 -0.847183 90.185997
14 90.185997 -0.000179 -0.000060 89.793228 -1.359877 -0.847183 90.185997
[R_rear_hand01]
13 103.366196 -6.073594 -10.757982 -166.511459 20.844780 -45.419292 104.101845
14 103.366196 -6.073594 -10.757982 -168.435654 21.936171 -50.693802 104.101845
[R_rear_hand02]
13 100.509819 12.039542 -7.992327 -28.715416 27.221781 42.882874 101.543350
14 100.509819 12.039542 -7.992327 -26.304031 29.546070 47.951012 101.543350
[R_rear_hand03]
13 101.539970 5.215704 5.435467 81.812386 -45.906315 9.761456 101.819031
14 101.539970 5.215704 5.435467 80.967644 -50.880718 10.893636 101.819031
[Rope4_Seg01]
13 0.000010 0.000038 -0.000114 37.396111 1.696702 -155.703003 0.000121
14 0.000010 0.000038 -0.000114 47.531273 -7.256362 -156.624878 0.000121
[Rope4_Seg02]
13 139.999985 0.000060 0.000119 -0.527354 22.909262 7.586044 139.999985
14 139.999985 0.000060 0.000119 -7.238636 26.428553 1.231877 139.999985
[Rope4_Seg03]
13 139.999924 0.000000 -0.000238 1.274675 22.738409 8.579449 139.999924
14 139.999924 0.000000 -0.000238 -0.576033 25.753124 5.066874 139.999924
[Rope4_Seg04]
13 139.999985 0.000000 0.000119 1.784432 20.404840 8.073424 139.999985
14 139.999985 0.000000 0.000119 1.721217 21.634043 5.539279 139.999985
[Rope4_Seg05]
13 139.999802 -0.000060 -0.000119 0.285685 3.160062 0.969384 139.999802
14 139.999802 -0.000060 -0.000119 0.575664 4.164221 0.542237 139.999802
[Rope4_Seg06]
13 139.999924 0.000000 0.000060 0.266428 -7.333251 -3.202426 139.999924
14 139.999924 0.000000 0.000060 0.131633 -4.844994 -2.018712 139.999924
[Rope4_Seg07]
13 139.999802 0.000000 0.000000 1.348099 -18.253029 -7.900119 139.999802
14 139.999802 0.000000 0.000000 0.575735 -14.791737 -5.226607 139.999802
[Rope4_Seg08]
13 139.999924 0.000000 0.000119 -1.047391 -9.783883 -4.223398 139.999924
14 139.999924 0.000000 0.000119 -1.134023 -9.171114 -3.415919 139.999924
[Rope4_Seg09]
13 90.185791 0.000060 0.000060 -135.617828 2.228885 0.850567 90.185791
14 90.185791 0.000060 0.000060 -135.617828 2.228885 0.850567 90.185791
[L_rear_hand01]
13 101.696655 -8.392275 -7.654577 -19.817358 -34.004440 119.772926 102.329041
14 101.696655 -8.392275 -7.654577 -17.210171 -35.270386 115.192986 102.329041
[L_rear_hand02]
13 102.726799 -1.568258 5.773216 77.801933 62.030903 165.326508 102.900848
14 102.726799 -1.568258 5.773216 75.949310 65.905777 163.268021 102.900848
[L_rear_hand03]
13 104.552910 9.721220 -10.420293 -173.169250 -23.757988 -117.159027 105.519653
14 104.552910 9.721220 -10.420293 -174.925018 -24.172251 -112.829384 105.519653
